<?xml version="1.0" encoding="UTF-8"?>
<svg xmlns="http://www.w3.org/2000/svg" xmlns:xlink="http://www.w3.org/1999/xlink" width="155px" height="41px" viewBox="0 0 155 41" version="1.1">
<g id="surface1">
<path style=" stroke:none;fill-rule:nonzero;fill:rgb(20%,20%,20%);fill-opacity:1;" d="M 69.414062 9.015625 C 69.414062 9.023438 69.40625 9.035156 69.398438 9.046875 C 69.386719 9.058594 69.359375 9.070312 69.320312 9.078125 C 69.28125 9.089844 69.222656 9.097656 69.148438 9.105469 C 69.070312 9.113281 68.96875 9.117188 68.839844 9.117188 C 68.714844 9.117188 68.613281 9.113281 68.542969 9.105469 C 68.46875 9.097656 68.414062 9.085938 68.375 9.078125 C 68.339844 9.066406 68.320312 9.054688 68.3125 9.042969 C 68.304688 9.03125 68.300781 9.023438 68.300781 9.015625 L 68.300781 8.273438 C 68.300781 8.253906 68.28125 8.238281 68.25 8.226562 C 68.214844 8.210938 68.160156 8.203125 68.082031 8.203125 C 68.039062 8.203125 68.003906 8.207031 67.976562 8.210938 C 67.949219 8.214844 67.917969 8.21875 67.882812 8.226562 L 67.804688 8.203125 C 67.863281 8.191406 67.925781 8.179688 67.996094 8.167969 C 68.0625 8.15625 68.136719 8.144531 68.21875 8.136719 C 68.296875 8.125 68.382812 8.117188 68.476562 8.113281 C 68.570312 8.109375 68.667969 8.105469 68.765625 8.105469 C 68.925781 8.105469 69.046875 8.109375 69.132812 8.121094 C 69.21875 8.132812 69.285156 8.144531 69.324219 8.164062 C 69.367188 8.179688 69.390625 8.195312 69.398438 8.214844 C 69.40625 8.234375 69.414062 8.25 69.414062 8.265625 L 69.414062 9.015625 M 68.183594 7.886719 C 68.183594 7.867188 68.199219 7.851562 68.230469 7.835938 C 68.261719 7.816406 68.304688 7.804688 68.359375 7.792969 C 68.410156 7.777344 68.476562 7.769531 68.546875 7.761719 C 68.617188 7.753906 68.695312 7.753906 68.78125 7.753906 C 68.863281 7.753906 68.941406 7.753906 69.011719 7.761719 C 69.082031 7.769531 69.144531 7.777344 69.199219 7.792969 C 69.253906 7.804688 69.292969 7.816406 69.324219 7.835938 C 69.355469 7.851562 69.367188 7.867188 69.367188 7.886719 C 69.367188 7.902344 69.355469 7.921875 69.324219 7.9375 C 69.292969 7.953125 69.253906 7.96875 69.199219 7.980469 C 69.144531 7.992188 69.082031 8 69.011719 8.007812 C 68.941406 8.015625 68.863281 8.019531 68.78125 8.019531 C 68.695312 8.019531 68.617188 8.015625 68.546875 8.007812 C 68.476562 8 68.410156 7.992188 68.359375 7.980469 C 68.304688 7.96875 68.261719 7.953125 68.230469 7.9375 C 68.199219 7.921875 68.183594 7.902344 68.183594 7.886719 Z M 71.960938 8.605469 C 71.960938 8.589844 71.941406 8.574219 71.902344 8.566406 C 71.863281 8.558594 71.816406 8.554688 71.753906 8.554688 C 71.671875 8.554688 71.589844 8.558594 71.511719 8.570312 C 71.4375 8.582031 71.371094 8.597656 71.3125 8.617188 C 71.253906 8.636719 71.207031 8.660156 71.175781 8.691406 C 71.140625 8.71875 71.121094 8.753906 71.121094 8.789062 C 71.121094 8.828125 71.132812 8.859375 71.152344 8.882812 C 71.175781 8.90625 71.203125 8.925781 71.238281 8.941406 C 71.273438 8.957031 71.3125 8.964844 71.359375 8.972656 C 71.40625 8.976562 71.453125 8.980469 71.503906 8.980469 C 71.566406 8.980469 71.628906 8.976562 71.683594 8.964844 C 71.738281 8.957031 71.785156 8.949219 71.824219 8.933594 C 71.867188 8.921875 71.902344 8.90625 71.925781 8.890625 C 71.949219 8.871094 71.960938 8.855469 71.960938 8.839844 L 71.960938 8.605469 M 71.386719 8.183594 C 71.304688 8.183594 71.226562 8.1875 71.15625 8.191406 C 71.085938 8.195312 71.023438 8.203125 70.972656 8.210938 C 70.921875 8.21875 70.882812 8.226562 70.851562 8.234375 C 70.824219 8.246094 70.808594 8.253906 70.808594 8.261719 C 70.808594 8.273438 70.828125 8.277344 70.867188 8.28125 C 70.90625 8.289062 70.945312 8.292969 70.992188 8.296875 C 71.039062 8.304688 71.078125 8.3125 71.117188 8.320312 C 71.15625 8.332031 71.175781 8.34375 71.175781 8.367188 C 71.175781 8.378906 71.164062 8.390625 71.144531 8.402344 C 71.125 8.414062 71.09375 8.425781 71.058594 8.433594 C 71.023438 8.441406 70.984375 8.449219 70.9375 8.453125 C 70.890625 8.457031 70.839844 8.460938 70.789062 8.460938 C 70.652344 8.460938 70.542969 8.449219 70.460938 8.425781 C 70.375 8.398438 70.335938 8.367188 70.335938 8.328125 C 70.335938 8.289062 70.375 8.253906 70.449219 8.226562 C 70.527344 8.199219 70.628906 8.175781 70.753906 8.15625 C 70.878906 8.140625 71.019531 8.125 71.179688 8.117188 C 71.335938 8.109375 71.492188 8.105469 71.648438 8.105469 C 71.835938 8.105469 72.019531 8.109375 72.191406 8.121094 C 72.363281 8.132812 72.515625 8.148438 72.648438 8.171875 C 72.78125 8.195312 72.886719 8.226562 72.964844 8.261719 C 73.042969 8.300781 73.082031 8.34375 73.082031 8.394531 L 73.082031 8.9375 C 73.082031 8.945312 73.082031 8.949219 73.085938 8.957031 C 73.085938 8.964844 73.09375 8.972656 73.101562 8.976562 C 73.113281 8.984375 73.125 8.988281 73.148438 8.992188 C 73.164062 8.996094 73.191406 8.996094 73.230469 8.996094 C 73.273438 8.996094 73.3125 8.992188 73.351562 8.984375 C 73.386719 8.976562 73.421875 8.96875 73.449219 8.957031 L 73.542969 8.976562 C 73.507812 8.992188 73.460938 9.007812 73.410156 9.023438 C 73.359375 9.039062 73.300781 9.054688 73.226562 9.066406 C 73.152344 9.082031 73.066406 9.09375 72.972656 9.101562 C 72.875 9.113281 72.765625 9.117188 72.640625 9.117188 C 72.488281 9.117188 72.351562 9.105469 72.234375 9.082031 C 72.117188 9.058594 72.039062 9.019531 72.003906 8.96875 C 71.925781 8.996094 71.84375 9.019531 71.761719 9.039062 C 71.675781 9.058594 71.589844 9.074219 71.503906 9.085938 C 71.417969 9.097656 71.328125 9.105469 71.238281 9.109375 C 71.152344 9.113281 71.0625 9.117188 70.972656 9.117188 C 70.859375 9.117188 70.746094 9.113281 70.636719 9.101562 C 70.527344 9.09375 70.429688 9.078125 70.34375 9.058594 C 70.257812 9.035156 70.1875 9.007812 70.136719 8.976562 C 70.085938 8.941406 70.058594 8.902344 70.058594 8.855469 C 70.058594 8.796875 70.101562 8.746094 70.1875 8.710938 C 70.277344 8.671875 70.390625 8.640625 70.535156 8.617188 C 70.675781 8.589844 70.835938 8.570312 71.015625 8.550781 C 71.195312 8.535156 71.378906 8.515625 71.570312 8.496094 C 71.710938 8.480469 71.8125 8.460938 71.875 8.429688 C 71.941406 8.402344 71.972656 8.371094 71.972656 8.339844 C 71.972656 8.292969 71.917969 8.253906 71.8125 8.226562 C 71.707031 8.199219 71.566406 8.183594 71.386719 8.183594 Z M 77.132812 9.015625 C 77.132812 9.027344 77.128906 9.035156 77.121094 9.046875 C 77.109375 9.058594 77.085938 9.070312 77.046875 9.078125 C 77.011719 9.089844 76.953125 9.097656 76.878906 9.105469 C 76.804688 9.113281 76.703125 9.117188 76.574219 9.117188 C 76.445312 9.117188 76.34375 9.113281 76.269531 9.105469 C 76.195312 9.097656 76.140625 9.085938 76.101562 9.078125 C 76.066406 9.066406 76.042969 9.054688 76.03125 9.042969 C 76.023438 9.03125 76.019531 9.023438 76.019531 9.015625 L 76.019531 8.335938 C 76.019531 8.328125 76.015625 8.316406 76.003906 8.308594 C 75.992188 8.300781 75.980469 8.292969 75.960938 8.285156 C 75.941406 8.277344 75.914062 8.269531 75.886719 8.265625 C 75.855469 8.261719 75.824219 8.257812 75.785156 8.257812 C 75.722656 8.257812 75.65625 8.261719 75.589844 8.273438 C 75.53125 8.28125 75.472656 8.292969 75.417969 8.304688 C 75.363281 8.320312 75.316406 8.332031 75.273438 8.34375 C 75.234375 8.359375 75.207031 8.367188 75.1875 8.375 L 75.1875 9.015625 C 75.1875 9.027344 75.183594 9.035156 75.175781 9.046875 C 75.164062 9.058594 75.140625 9.070312 75.105469 9.078125 C 75.066406 9.089844 75.011719 9.097656 74.9375 9.105469 C 74.863281 9.113281 74.761719 9.117188 74.632812 9.117188 C 74.503906 9.117188 74.402344 9.113281 74.328125 9.105469 C 74.253906 9.097656 74.199219 9.085938 74.164062 9.078125 C 74.125 9.066406 74.097656 9.054688 74.089844 9.042969 C 74.078125 9.03125 74.074219 9.023438 74.074219 9.015625 L 74.074219 8.273438 C 74.074219 8.253906 74.058594 8.238281 74.027344 8.226562 C 73.992188 8.210938 73.9375 8.203125 73.859375 8.203125 C 73.816406 8.203125 73.78125 8.207031 73.753906 8.210938 C 73.722656 8.214844 73.691406 8.21875 73.660156 8.226562 L 73.582031 8.203125 C 73.636719 8.191406 73.703125 8.179688 73.773438 8.167969 C 73.839844 8.15625 73.914062 8.144531 73.996094 8.136719 C 74.074219 8.125 74.160156 8.117188 74.253906 8.113281 C 74.34375 8.109375 74.441406 8.105469 74.542969 8.105469 C 74.699219 8.105469 74.824219 8.113281 74.910156 8.125 C 74.996094 8.140625 75.058594 8.15625 75.101562 8.175781 C 75.144531 8.195312 75.167969 8.214844 75.175781 8.234375 C 75.183594 8.253906 75.1875 8.273438 75.1875 8.285156 C 75.300781 8.253906 75.425781 8.222656 75.558594 8.195312 C 75.609375 8.183594 75.667969 8.171875 75.734375 8.164062 C 75.796875 8.152344 75.863281 8.140625 75.929688 8.132812 C 75.996094 8.125 76.066406 8.117188 76.140625 8.113281 C 76.214844 8.105469 76.289062 8.105469 76.359375 8.105469 C 76.5 8.105469 76.621094 8.113281 76.71875 8.125 C 76.820312 8.136719 76.898438 8.15625 76.957031 8.171875 C 77.019531 8.191406 77.0625 8.210938 77.09375 8.234375 C 77.117188 8.253906 77.132812 8.273438 77.132812 8.285156 C 77.25 8.253906 77.371094 8.222656 77.5 8.195312 C 77.554688 8.183594 77.609375 8.171875 77.675781 8.164062 C 77.738281 8.152344 77.804688 8.140625 77.875 8.132812 C 77.941406 8.125 78.011719 8.117188 78.082031 8.113281 C 78.152344 8.105469 78.226562 8.105469 78.296875 8.105469 C 78.4375 8.105469 78.558594 8.113281 78.65625 8.125 C 78.757812 8.140625 78.839844 8.15625 78.898438 8.179688 C 78.960938 8.203125 79.003906 8.226562 79.03125 8.253906 C 79.058594 8.285156 79.074219 8.3125 79.074219 8.339844 L 79.074219 8.933594 C 79.074219 8.941406 79.074219 8.945312 79.074219 8.953125 C 79.078125 8.960938 79.085938 8.964844 79.09375 8.972656 C 79.105469 8.980469 79.121094 8.984375 79.140625 8.988281 C 79.160156 8.992188 79.1875 8.992188 79.222656 8.992188 C 79.265625 8.992188 79.308594 8.988281 79.34375 8.980469 C 79.382812 8.972656 79.417969 8.964844 79.449219 8.953125 L 79.535156 8.972656 C 79.5 8.988281 79.457031 9.003906 79.402344 9.019531 C 79.34375 9.035156 79.28125 9.050781 79.203125 9.066406 C 79.125 9.078125 79.039062 9.09375 78.9375 9.101562 C 78.835938 9.113281 78.722656 9.117188 78.597656 9.117188 C 78.492188 9.117188 78.398438 9.113281 78.320312 9.105469 C 78.242188 9.097656 78.175781 9.089844 78.117188 9.078125 C 78.0625 9.0625 78.023438 9.050781 77.996094 9.03125 C 77.96875 9.015625 77.957031 8.996094 77.957031 8.976562 L 77.957031 8.335938 C 77.957031 8.328125 77.953125 8.316406 77.945312 8.308594 C 77.933594 8.300781 77.917969 8.292969 77.902344 8.285156 C 77.882812 8.277344 77.859375 8.269531 77.828125 8.265625 C 77.800781 8.261719 77.765625 8.257812 77.726562 8.257812 C 77.664062 8.257812 77.597656 8.261719 77.535156 8.273438 C 77.472656 8.28125 77.410156 8.292969 77.355469 8.304688 C 77.300781 8.320312 77.253906 8.332031 77.214844 8.34375 C 77.175781 8.359375 77.148438 8.367188 77.132812 8.375 Z M 83.003906 8.695312 L 81.632812 8.695312 C 81.53125 8.78125 81.421875 8.855469 81.304688 8.917969 C 81.1875 8.976562 81.058594 9.03125 80.914062 9.070312 C 80.773438 9.113281 80.617188 9.144531 80.445312 9.164062 C 80.273438 9.183594 80.082031 9.191406 79.871094 9.191406 C 79.757812 9.191406 79.644531 9.191406 79.539062 9.183594 C 79.429688 9.179688 79.335938 9.171875 79.253906 9.160156 C 79.171875 9.152344 79.105469 9.140625 79.054688 9.128906 C 79.003906 9.113281 78.980469 9.101562 78.980469 9.085938 C 78.980469 9.074219 78.988281 9.0625 79 9.050781 C 79.011719 9.039062 79.03125 9.027344 79.054688 9.015625 C 79.078125 9.007812 79.109375 9 79.144531 8.992188 C 79.179688 8.988281 79.21875 8.984375 79.261719 8.984375 C 79.300781 8.984375 79.335938 8.992188 79.363281 9.003906 C 79.394531 9.019531 79.429688 9.035156 79.476562 9.050781 C 79.519531 9.070312 79.578125 9.085938 79.648438 9.097656 C 79.71875 9.113281 79.8125 9.121094 79.9375 9.121094 C 80.0625 9.121094 80.183594 9.109375 80.296875 9.09375 C 80.410156 9.078125 80.519531 9.054688 80.625 9.019531 C 80.730469 8.984375 80.832031 8.941406 80.929688 8.890625 C 81.027344 8.835938 81.121094 8.773438 81.214844 8.695312 L 80.355469 8.695312 L 80.355469 8.613281 L 81.308594 8.613281 C 81.390625 8.539062 81.46875 8.46875 81.542969 8.394531 C 81.617188 8.320312 81.691406 8.25 81.757812 8.183594 C 81.824219 8.117188 81.886719 8.054688 81.941406 7.996094 C 81.996094 7.9375 82.039062 7.886719 82.074219 7.84375 C 82.027344 7.804688 81.960938 7.78125 81.875 7.769531 C 81.792969 7.757812 81.679688 7.753906 81.539062 7.753906 C 81.410156 7.753906 81.273438 7.757812 81.132812 7.769531 C 80.996094 7.777344 80.871094 7.792969 80.757812 7.8125 C 80.644531 7.832031 80.546875 7.855469 80.472656 7.886719 C 80.398438 7.914062 80.363281 7.945312 80.363281 7.980469 C 80.363281 8 80.375 8.015625 80.394531 8.03125 C 80.414062 8.042969 80.4375 8.050781 80.46875 8.058594 C 80.496094 8.0625 80.523438 8.066406 80.546875 8.070312 C 80.574219 8.070312 80.597656 8.070312 80.609375 8.070312 C 80.667969 8.070312 80.71875 8.070312 80.757812 8.0625 C 80.796875 8.058594 80.832031 8.050781 80.863281 8.046875 C 80.894531 8.039062 80.921875 8.035156 80.953125 8.027344 C 80.980469 8.023438 81.015625 8.019531 81.050781 8.019531 C 81.078125 8.019531 81.105469 8.023438 81.136719 8.023438 C 81.171875 8.027344 81.203125 8.035156 81.230469 8.042969 C 81.257812 8.050781 81.28125 8.058594 81.300781 8.070312 C 81.320312 8.085938 81.328125 8.101562 81.328125 8.117188 C 81.328125 8.144531 81.3125 8.164062 81.273438 8.183594 C 81.238281 8.203125 81.1875 8.21875 81.128906 8.230469 C 81.070312 8.242188 81 8.253906 80.925781 8.257812 C 80.847656 8.265625 80.773438 8.269531 80.699219 8.269531 C 80.582031 8.269531 80.476562 8.261719 80.382812 8.25 C 80.292969 8.238281 80.210938 8.226562 80.144531 8.207031 C 80.078125 8.1875 80.03125 8.164062 79.996094 8.136719 C 79.964844 8.113281 79.949219 8.085938 79.949219 8.058594 C 79.949219 8.015625 79.972656 7.976562 80.023438 7.941406 C 80.078125 7.90625 80.152344 7.871094 80.25 7.84375 C 80.34375 7.8125 80.453125 7.789062 80.582031 7.765625 C 80.710938 7.746094 80.847656 7.726562 81 7.710938 C 81.148438 7.695312 81.300781 7.683594 81.464844 7.675781 C 81.625 7.667969 81.789062 7.664062 81.957031 7.664062 C 82.1875 7.664062 82.382812 7.671875 82.546875 7.679688 C 82.707031 7.691406 82.839844 7.703125 82.953125 7.722656 C 83.058594 7.742188 83.148438 7.769531 83.214844 7.796875 C 83.28125 7.828125 83.335938 7.863281 83.378906 7.902344 L 84.160156 8.613281 L 84.949219 8.613281 L 84.949219 8.695312 L 84.246094 8.695312 L 84.527344 8.949219 C 84.539062 8.957031 84.550781 8.964844 84.558594 8.976562 C 84.570312 8.984375 84.582031 8.992188 84.59375 8.996094 C 84.605469 9.003906 84.625 9.007812 84.644531 9.011719 C 84.664062 9.015625 84.691406 9.015625 84.722656 9.015625 C 84.789062 9.015625 84.851562 9.015625 84.910156 9.007812 C 84.96875 9.003906 85.023438 8.996094 85.066406 8.988281 L 85.128906 9.023438 C 85.085938 9.03125 85.027344 9.042969 84.960938 9.054688 C 84.894531 9.0625 84.816406 9.074219 84.730469 9.082031 C 84.644531 9.09375 84.550781 9.101562 84.445312 9.109375 C 84.34375 9.113281 84.230469 9.117188 84.113281 9.117188 C 83.949219 9.117188 83.816406 9.113281 83.714844 9.101562 C 83.613281 9.089844 83.535156 9.078125 83.476562 9.0625 C 83.421875 9.042969 83.382812 9.027344 83.355469 9.007812 C 83.328125 8.992188 83.308594 8.976562 83.296875 8.960938 L 83.003906 8.695312 M 82.300781 8.046875 C 82.199219 8.152344 82.105469 8.253906 82.011719 8.347656 C 81.917969 8.441406 81.824219 8.53125 81.734375 8.613281 L 82.917969 8.613281 Z M 87.714844 8.625 C 87.714844 8.542969 87.703125 8.476562 87.671875 8.429688 C 87.644531 8.382812 87.609375 8.34375 87.5625 8.320312 C 87.515625 8.292969 87.464844 8.277344 87.410156 8.269531 C 87.351562 8.261719 87.296875 8.257812 87.238281 8.257812 C 87.167969 8.257812 87.105469 8.261719 87.050781 8.273438 C 86.996094 8.28125 86.949219 8.292969 86.910156 8.304688 C 86.871094 8.320312 86.835938 8.332031 86.808594 8.34375 C 86.78125 8.359375 86.757812 8.367188 86.738281 8.375 L 86.738281 9.015625 C 86.738281 9.023438 86.730469 9.035156 86.722656 9.046875 C 86.714844 9.058594 86.691406 9.070312 86.652344 9.078125 C 86.617188 9.089844 86.558594 9.097656 86.484375 9.105469 C 86.410156 9.113281 86.308594 9.117188 86.179688 9.117188 C 86.054688 9.117188 85.953125 9.113281 85.878906 9.105469 C 85.804688 9.097656 85.746094 9.085938 85.710938 9.078125 C 85.671875 9.066406 85.644531 9.054688 85.636719 9.042969 C 85.628906 9.03125 85.625 9.023438 85.625 9.015625 L 85.625 8.273438 C 85.625 8.253906 85.605469 8.238281 85.574219 8.226562 C 85.539062 8.210938 85.484375 8.203125 85.40625 8.203125 C 85.363281 8.203125 85.328125 8.207031 85.300781 8.210938 C 85.273438 8.214844 85.242188 8.21875 85.207031 8.226562 L 85.128906 8.203125 C 85.1875 8.191406 85.25 8.179688 85.320312 8.167969 C 85.386719 8.15625 85.460938 8.144531 85.542969 8.136719 C 85.621094 8.125 85.707031 8.117188 85.800781 8.113281 C 85.894531 8.109375 85.992188 8.105469 86.089844 8.105469 C 86.25 8.105469 86.371094 8.113281 86.457031 8.125 C 86.542969 8.140625 86.609375 8.15625 86.648438 8.175781 C 86.691406 8.195312 86.714844 8.214844 86.722656 8.234375 C 86.730469 8.253906 86.738281 8.273438 86.738281 8.285156 C 86.828125 8.253906 86.929688 8.222656 87.042969 8.195312 C 87.089844 8.183594 87.140625 8.171875 87.199219 8.164062 C 87.253906 8.152344 87.3125 8.140625 87.378906 8.132812 C 87.441406 8.125 87.511719 8.117188 87.582031 8.113281 C 87.652344 8.105469 87.726562 8.105469 87.804688 8.105469 C 87.964844 8.105469 88.113281 8.113281 88.238281 8.128906 C 88.367188 8.144531 88.472656 8.175781 88.5625 8.214844 C 88.648438 8.25 88.714844 8.304688 88.761719 8.367188 C 88.804688 8.433594 88.828125 8.511719 88.828125 8.609375 C 88.828125 8.703125 88.796875 8.78125 88.734375 8.851562 C 88.671875 8.917969 88.589844 8.976562 88.488281 9.023438 C 88.386719 9.074219 88.273438 9.113281 88.144531 9.144531 C 88.015625 9.171875 87.886719 9.195312 87.753906 9.214844 C 87.621094 9.230469 87.496094 9.242188 87.378906 9.25 C 87.257812 9.257812 87.15625 9.261719 87.066406 9.261719 L 87.027344 9.222656 C 87.101562 9.21875 87.167969 9.210938 87.230469 9.203125 C 87.292969 9.191406 87.347656 9.175781 87.398438 9.160156 C 87.449219 9.140625 87.492188 9.117188 87.53125 9.089844 C 87.574219 9.058594 87.605469 9.023438 87.632812 8.980469 C 87.660156 8.9375 87.683594 8.886719 87.695312 8.828125 C 87.707031 8.769531 87.714844 8.703125 87.714844 8.625 Z M 90.703125 8.367188 C 90.789062 8.335938 90.878906 8.304688 90.972656 8.273438 C 91.070312 8.242188 91.175781 8.214844 91.285156 8.191406 C 91.398438 8.164062 91.519531 8.144531 91.648438 8.128906 C 91.78125 8.113281 91.925781 8.105469 92.082031 8.105469 C 92.21875 8.105469 92.332031 8.113281 92.425781 8.125 C 92.515625 8.140625 92.59375 8.15625 92.648438 8.179688 C 92.707031 8.199219 92.746094 8.21875 92.769531 8.242188 C 92.792969 8.261719 92.800781 8.28125 92.800781 8.296875 C 92.800781 8.324219 92.789062 8.355469 92.757812 8.382812 C 92.730469 8.414062 92.6875 8.445312 92.621094 8.476562 C 92.554688 8.503906 92.464844 8.535156 92.351562 8.5625 C 92.242188 8.589844 92.101562 8.613281 91.929688 8.636719 C 92.160156 8.765625 92.378906 8.875 92.59375 8.964844 C 92.808594 9.058594 93.019531 9.136719 93.21875 9.195312 C 93.417969 9.253906 93.609375 9.296875 93.792969 9.324219 C 93.980469 9.351562 94.152344 9.367188 94.320312 9.367188 C 94.351562 9.367188 94.378906 9.367188 94.410156 9.363281 C 94.4375 9.363281 94.464844 9.359375 94.488281 9.359375 C 94.515625 9.355469 94.542969 9.351562 94.574219 9.347656 L 94.640625 9.382812 C 94.574219 9.390625 94.507812 9.402344 94.441406 9.410156 C 94.375 9.417969 94.296875 9.425781 94.207031 9.429688 C 94.121094 9.4375 94.019531 9.445312 93.90625 9.445312 C 93.792969 9.449219 93.65625 9.453125 93.5 9.453125 C 93.359375 9.453125 93.214844 9.449219 93.074219 9.4375 C 92.9375 9.429688 92.796875 9.414062 92.65625 9.390625 C 92.515625 9.367188 92.375 9.335938 92.230469 9.296875 C 92.085938 9.261719 91.9375 9.210938 91.785156 9.152344 C 91.636719 9.09375 91.480469 9.023438 91.320312 8.941406 C 91.160156 8.859375 90.992188 8.765625 90.820312 8.65625 C 91.054688 8.613281 91.238281 8.570312 91.371094 8.53125 C 91.503906 8.492188 91.605469 8.457031 91.671875 8.425781 C 91.738281 8.394531 91.78125 8.367188 91.800781 8.34375 C 91.816406 8.316406 91.828125 8.296875 91.828125 8.28125 C 91.828125 8.277344 91.824219 8.273438 91.824219 8.265625 C 91.820312 8.261719 91.8125 8.253906 91.796875 8.25 C 91.785156 8.242188 91.765625 8.238281 91.738281 8.234375 C 91.714844 8.230469 91.679688 8.226562 91.632812 8.226562 C 91.542969 8.226562 91.453125 8.238281 91.359375 8.257812 C 91.269531 8.277344 91.179688 8.300781 91.097656 8.332031 C 91.011719 8.363281 90.9375 8.394531 90.871094 8.429688 C 90.804688 8.460938 90.746094 8.492188 90.703125 8.519531 L 90.703125 9.015625 C 90.703125 9.027344 90.699219 9.035156 90.683594 9.046875 C 90.675781 9.058594 90.648438 9.070312 90.609375 9.078125 C 90.570312 9.089844 90.511719 9.097656 90.433594 9.105469 C 90.359375 9.113281 90.257812 9.117188 90.128906 9.117188 C 90 9.117188 89.898438 9.113281 89.828125 9.105469 C 89.753906 9.097656 89.699219 9.085938 89.664062 9.078125 C 89.628906 9.066406 89.609375 9.054688 89.601562 9.042969 C 89.59375 9.03125 89.589844 9.023438 89.589844 9.015625 L 89.589844 7.777344 C 89.589844 7.757812 89.570312 7.742188 89.539062 7.726562 C 89.503906 7.714844 89.449219 7.707031 89.375 7.707031 C 89.332031 7.707031 89.296875 7.707031 89.265625 7.710938 C 89.234375 7.714844 89.203125 7.71875 89.167969 7.726562 L 89.097656 7.703125 C 89.152344 7.691406 89.214844 7.679688 89.28125 7.667969 C 89.347656 7.65625 89.421875 7.644531 89.503906 7.636719 C 89.585938 7.628906 89.671875 7.621094 89.765625 7.617188 C 89.859375 7.609375 89.953125 7.605469 90.054688 7.605469 C 90.214844 7.605469 90.335938 7.613281 90.421875 7.625 C 90.511719 7.636719 90.574219 7.648438 90.613281 7.664062 C 90.65625 7.679688 90.679688 7.699219 90.6875 7.71875 C 90.699219 7.734375 90.703125 7.75 90.703125 7.765625 Z M 96.703125 8.933594 C 96.703125 8.941406 96.707031 8.945312 96.707031 8.953125 C 96.710938 8.960938 96.714844 8.964844 96.726562 8.972656 C 96.734375 8.980469 96.75 8.984375 96.769531 8.988281 C 96.789062 8.992188 96.816406 8.992188 96.851562 8.992188 C 96.898438 8.992188 96.941406 8.988281 96.976562 8.980469 C 97.011719 8.972656 97.046875 8.964844 97.074219 8.953125 L 97.164062 8.972656 C 97.128906 8.988281 97.082031 9.003906 97.03125 9.019531 C 96.972656 9.035156 96.90625 9.050781 96.832031 9.066406 C 96.753906 9.078125 96.664062 9.09375 96.566406 9.101562 C 96.464844 9.113281 96.351562 9.117188 96.226562 9.117188 C 96.121094 9.117188 96.027344 9.113281 95.949219 9.105469 C 95.871094 9.097656 95.804688 9.089844 95.75 9.078125 C 95.695312 9.0625 95.65625 9.050781 95.628906 9.03125 C 95.601562 9.015625 95.589844 8.996094 95.589844 8.976562 L 95.589844 8.933594 C 95.464844 8.96875 95.339844 9 95.207031 9.027344 C 95.148438 9.039062 95.085938 9.050781 95.019531 9.058594 C 94.953125 9.070312 94.886719 9.082031 94.820312 9.089844 C 94.75 9.097656 94.675781 9.105469 94.597656 9.109375 C 94.523438 9.113281 94.449219 9.117188 94.375 9.117188 C 94.230469 9.117188 94.105469 9.109375 94 9.097656 C 93.898438 9.082031 93.816406 9.066406 93.753906 9.042969 C 93.691406 9.019531 93.644531 8.996094 93.617188 8.964844 C 93.585938 8.9375 93.574219 8.910156 93.574219 8.882812 L 93.574219 8.285156 C 93.574219 8.28125 93.570312 8.273438 93.566406 8.269531 C 93.566406 8.261719 93.558594 8.253906 93.550781 8.25 C 93.542969 8.242188 93.527344 8.238281 93.503906 8.234375 C 93.484375 8.230469 93.460938 8.230469 93.425781 8.230469 C 93.378906 8.230469 93.335938 8.234375 93.300781 8.242188 C 93.261719 8.25 93.230469 8.257812 93.199219 8.269531 L 93.109375 8.246094 C 93.144531 8.234375 93.191406 8.21875 93.246094 8.203125 C 93.300781 8.1875 93.367188 8.171875 93.445312 8.15625 C 93.523438 8.140625 93.609375 8.128906 93.710938 8.121094 C 93.8125 8.109375 93.921875 8.105469 94.046875 8.105469 C 94.15625 8.105469 94.246094 8.109375 94.328125 8.117188 C 94.40625 8.125 94.472656 8.132812 94.527344 8.144531 C 94.582031 8.15625 94.621094 8.171875 94.644531 8.1875 C 94.671875 8.207031 94.6875 8.222656 94.6875 8.246094 L 94.6875 8.886719 C 94.6875 8.894531 94.691406 8.902344 94.703125 8.914062 C 94.714844 8.921875 94.730469 8.929688 94.75 8.9375 C 94.773438 8.945312 94.796875 8.953125 94.828125 8.957031 C 94.859375 8.960938 94.898438 8.964844 94.941406 8.964844 C 95.011719 8.964844 95.082031 8.960938 95.152344 8.949219 C 95.222656 8.941406 95.285156 8.929688 95.34375 8.914062 C 95.402344 8.902344 95.453125 8.890625 95.496094 8.878906 C 95.539062 8.863281 95.570312 8.855469 95.589844 8.847656 L 95.589844 8.285156 C 95.589844 8.28125 95.585938 8.273438 95.585938 8.269531 C 95.582031 8.261719 95.578125 8.253906 95.566406 8.25 C 95.554688 8.242188 95.542969 8.238281 95.523438 8.234375 C 95.503906 8.230469 95.472656 8.230469 95.4375 8.230469 C 95.394531 8.230469 95.355469 8.234375 95.316406 8.242188 C 95.277344 8.25 95.246094 8.257812 95.214844 8.269531 L 95.125 8.246094 C 95.164062 8.234375 95.207031 8.21875 95.261719 8.203125 C 95.316406 8.1875 95.382812 8.171875 95.460938 8.15625 C 95.539062 8.140625 95.625 8.128906 95.726562 8.121094 C 95.828125 8.109375 95.941406 8.105469 96.0625 8.105469 C 96.167969 8.105469 96.265625 8.109375 96.34375 8.117188 C 96.421875 8.125 96.488281 8.132812 96.542969 8.144531 C 96.597656 8.15625 96.636719 8.171875 96.664062 8.1875 C 96.691406 8.207031 96.703125 8.222656 96.703125 8.246094 Z M 98.828125 8.179688 C 98.769531 8.179688 98.71875 8.183594 98.667969 8.1875 C 98.617188 8.191406 98.574219 8.195312 98.535156 8.207031 C 98.496094 8.214844 98.464844 8.226562 98.445312 8.238281 C 98.421875 8.25 98.410156 8.265625 98.410156 8.285156 C 98.410156 8.308594 98.445312 8.335938 98.511719 8.359375 C 98.582031 8.382812 98.671875 8.410156 98.773438 8.4375 C 98.875 8.464844 98.984375 8.492188 99.105469 8.519531 C 99.226562 8.546875 99.335938 8.578125 99.441406 8.609375 C 99.542969 8.640625 99.628906 8.675781 99.699219 8.710938 C 99.769531 8.746094 99.804688 8.785156 99.804688 8.828125 C 99.804688 8.871094 99.773438 8.914062 99.714844 8.949219 C 99.652344 8.984375 99.570312 9.015625 99.457031 9.039062 C 99.347656 9.066406 99.214844 9.085938 99.058594 9.097656 C 98.902344 9.109375 98.730469 9.117188 98.539062 9.117188 C 98.371094 9.117188 98.21875 9.109375 98.085938 9.097656 C 97.949219 9.085938 97.828125 9.070312 97.722656 9.054688 C 97.617188 9.035156 97.527344 9.015625 97.453125 8.996094 C 97.375 8.972656 97.316406 8.957031 97.277344 8.9375 L 97.402344 8.914062 C 97.4375 8.925781 97.476562 8.933594 97.523438 8.945312 C 97.574219 8.957031 97.628906 8.96875 97.6875 8.976562 C 97.746094 8.988281 97.808594 8.996094 97.878906 9 C 97.945312 9.007812 98.015625 9.007812 98.085938 9.007812 C 98.257812 9.007812 98.402344 9 98.511719 8.976562 C 98.625 8.953125 98.679688 8.921875 98.679688 8.878906 C 98.679688 8.855469 98.648438 8.828125 98.585938 8.800781 C 98.527344 8.777344 98.453125 8.75 98.363281 8.722656 C 98.269531 8.695312 98.167969 8.667969 98.0625 8.636719 C 97.957031 8.609375 97.855469 8.578125 97.761719 8.546875 C 97.671875 8.515625 97.597656 8.480469 97.535156 8.449219 C 97.476562 8.414062 97.445312 8.378906 97.445312 8.34375 C 97.445312 8.304688 97.476562 8.269531 97.535156 8.238281 C 97.597656 8.210938 97.679688 8.183594 97.785156 8.164062 C 97.886719 8.144531 98.007812 8.128906 98.136719 8.121094 C 98.269531 8.109375 98.402344 8.105469 98.542969 8.105469 C 98.707031 8.105469 98.855469 8.109375 98.988281 8.117188 C 99.121094 8.125 99.238281 8.136719 99.332031 8.152344 C 99.425781 8.167969 99.5 8.1875 99.554688 8.210938 C 99.605469 8.234375 99.632812 8.261719 99.632812 8.292969 C 99.632812 8.316406 99.601562 8.339844 99.542969 8.355469 C 99.480469 8.375 99.394531 8.382812 99.285156 8.382812 C 99.183594 8.382812 99.101562 8.378906 99.050781 8.367188 C 98.992188 8.355469 98.964844 8.335938 98.964844 8.316406 C 98.964844 8.304688 98.980469 8.292969 99.007812 8.285156 C 99.03125 8.277344 99.058594 8.269531 99.089844 8.265625 C 99.121094 8.261719 99.148438 8.257812 99.175781 8.253906 C 99.203125 8.25 99.214844 8.246094 99.214844 8.238281 C 99.214844 8.222656 99.179688 8.207031 99.105469 8.199219 C 99.03125 8.1875 98.941406 8.179688 98.828125 8.179688 Z M 101.527344 8.285156 C 101.617188 8.253906 101.71875 8.222656 101.832031 8.195312 C 101.878906 8.183594 101.929688 8.171875 101.988281 8.164062 C 102.042969 8.152344 102.101562 8.140625 102.167969 8.132812 C 102.230469 8.125 102.300781 8.117188 102.371094 8.113281 C 102.445312 8.105469 102.515625 8.105469 102.589844 8.105469 C 102.753906 8.105469 102.898438 8.113281 103.027344 8.128906 C 103.15625 8.144531 103.265625 8.175781 103.351562 8.214844 C 103.4375 8.25 103.503906 8.304688 103.550781 8.367188 C 103.597656 8.433594 103.621094 8.511719 103.621094 8.609375 C 103.621094 8.703125 103.589844 8.78125 103.523438 8.851562 C 103.460938 8.917969 103.378906 8.976562 103.277344 9.023438 C 103.175781 9.074219 103.0625 9.113281 102.933594 9.144531 C 102.804688 9.171875 102.675781 9.195312 102.546875 9.214844 C 102.414062 9.230469 102.285156 9.242188 102.167969 9.25 C 102.046875 9.257812 101.941406 9.261719 101.855469 9.261719 L 101.816406 9.222656 C 101.925781 9.214844 102.023438 9.203125 102.109375 9.183594 C 102.191406 9.164062 102.265625 9.132812 102.320312 9.089844 C 102.378906 9.042969 102.425781 8.984375 102.457031 8.910156 C 102.484375 8.835938 102.5 8.742188 102.5 8.625 C 102.5 8.542969 102.488281 8.476562 102.457031 8.429688 C 102.429688 8.382812 102.394531 8.34375 102.351562 8.320312 C 102.304688 8.292969 102.253906 8.277344 102.199219 8.269531 C 102.140625 8.261719 102.082031 8.257812 102.023438 8.257812 C 101.953125 8.257812 101.890625 8.261719 101.839844 8.273438 C 101.785156 8.28125 101.738281 8.292969 101.699219 8.304688 C 101.660156 8.320312 101.625 8.332031 101.597656 8.34375 C 101.570312 8.359375 101.546875 8.367188 101.527344 8.375 L 101.527344 9.015625 C 101.527344 9.023438 101.523438 9.035156 101.511719 9.046875 C 101.503906 9.058594 101.480469 9.070312 101.441406 9.078125 C 101.402344 9.089844 101.347656 9.097656 101.273438 9.105469 C 101.199219 9.113281 101.097656 9.117188 100.96875 9.117188 C 100.84375 9.117188 100.742188 9.113281 100.667969 9.105469 C 100.59375 9.097656 100.535156 9.085938 100.496094 9.078125 C 100.457031 9.066406 100.4375 9.054688 100.429688 9.042969 C 100.417969 9.03125 100.414062 9.023438 100.414062 9.015625 L 100.414062 7.777344 C 100.414062 7.757812 100.394531 7.742188 100.363281 7.726562 C 100.328125 7.714844 100.273438 7.707031 100.199219 7.707031 C 100.15625 7.707031 100.121094 7.707031 100.089844 7.710938 C 100.058594 7.714844 100.027344 7.71875 99.992188 7.726562 L 99.921875 7.703125 C 99.976562 7.691406 100.039062 7.679688 100.105469 7.667969 C 100.171875 7.65625 100.246094 7.644531 100.328125 7.636719 C 100.410156 7.628906 100.496094 7.621094 100.589844 7.617188 C 100.683594 7.609375 100.777344 7.605469 100.878906 7.605469 C 101.039062 7.605469 101.160156 7.613281 101.246094 7.625 C 101.335938 7.636719 101.398438 7.648438 101.4375 7.664062 C 101.480469 7.679688 101.503906 7.699219 101.511719 7.71875 C 101.523438 7.734375 101.527344 7.75 101.527344 7.765625 Z M 101.527344 8.285156 "/>
</g>
</svg>
